<svg xmlns="http://www.w3.org/2000/svg" xmlns:xlink="http://www.w3.org/1999/xlink" viewBox="0 0 184.018 247.491">
  <defs>
    <style>
      .cls-1, .cls-2, .cls-3, .cls-4, .cls-5 {
        stroke: #fff;
        stroke-width: 4px;
        fill-rule: evenodd;
      }

      .cls-1 {
        fill: url(#linear-gradient);
      }

      .cls-2 {
        fill: url(#linear-gradient-2);
      }

      .cls-3 {
        fill: url(#linear-gradient-3);
      }

      .cls-4 {
        fill: url(#linear-gradient-4);
      }

      .cls-5 {
        fill: url(#linear-gradient-5);
      }
    </style>
    <linearGradient id="linear-gradient" x1="0.5" x2="0.5" y2="1" gradientUnits="objectBoundingBox">
      <stop offset="0" stop-color="#ff2c2c"/>
      <stop offset="1" stop-color="#ffe5e5"/>
    </linearGradient>
    <linearGradient id="linear-gradient-2" x1="0.5" x2="0.5" y2="1" gradientUnits="objectBoundingBox">
      <stop offset="0" stop-color="#ff1414"/>
      <stop offset="1" stop-color="#ffc1c1"/>
    </linearGradient>
    <linearGradient id="linear-gradient-3" x1="0.516" y1="0.022" x2="0.544" y2="1" gradientUnits="objectBoundingBox">
      <stop offset="0" stop-color="#fff2f2"/>
      <stop offset="1" stop-color="red"/>
    </linearGradient>
    <linearGradient id="linear-gradient-4" x1="0.66" x2="0.66" y2="0.78" gradientUnits="objectBoundingBox">
      <stop offset="0" stop-color="red"/>
      <stop offset="1" stop-color="#ffd1d1"/>
    </linearGradient>
    <linearGradient id="linear-gradient-5" x1="0.5" x2="0.5" y2="1" gradientUnits="objectBoundingBox">
      <stop offset="0" stop-color="#ffdfdf"/>
      <stop offset="1" stop-color="#f22"/>
    </linearGradient>
  </defs>
  <g id="Group" transform="translate(1.112 2.81)">
    <g id="Group-2" data-name="Group" transform="translate(0.909 0.5)">
      <path id="Line-4" class="cls-1" d="M1.977,233.35Q1.2,264.208,22.806,292.72c21.61,28.512,66.408,30.275,67.543,29.373q-9.664-1.063-13.543-4.229C61.64,305.486,64.359,285.9,72.145,274.334s56.768-13.445,66.379-14.57c14.468-1.693,54.518-35.288,35.267-65.845s-13.53-15.99-46.112-13.665-60.073,59.495-77.7,68.011c-8.331,4.025-16.679,9.154-27.175,5.548q-4.308-1.48-13.615-9.71Z" transform="translate(-1.928 -80.415)"/>
      <path id="Line-5" class="cls-2" d="M227.544,223.924q7.91,37.337,1.55,59.043c-3.5,11.943-18.6,38-41.308,51.54-18.568,11.068-44.986,11.141-51.3,10.147-13.217-2.08-30.207-21.681-24.3-39.981,10.181-31.537,47.442-16.079,71.591-25.915Q229.094,260.3,227.544,223.924Z" transform="translate(-51.929 -102.965)"/>
      <path id="Line" class="cls-3" d="M143.021.5l28.694,37.9s-10.937-12.54-28.694-11.074q-17.757,1.466-31.258,14.34Z" transform="translate(-52.289 -0.5)"/>
      <path id="Line-2" class="cls-4" d="M101.353,45.069q13.546-1.552,26.5,13.405l7.532,10.453q13.25,21.882,0,35.043c-13.25,13.16-38.718,1.766-69.827,2.494s-45.3,23.076-48.521,27.357,4.127-9.212,7.366-13.686q3.239-4.474,43.637-58.008a38.369,38.369,0,0,1,13.2-10.493C89.013,47.843,96.81,45.59,101.353,45.069Z" transform="translate(-8.481 -20.873)"/>
      <path id="Line-3" class="cls-5" d="M130,92.5l42.96,61.486q-4.839-10.253-32.108-9.012C113.58,146.214,90.194,172,80.021,182.926S47.88,233.988,19.831,222.17q-28.049-11.818-12.2-59.73,13.887-39.426,48.017-36.7c31.4,2.509,44.64,7.746,57.557,5.984,3.47-.473,7.989-.8,11.424-3.114Q140.848,117.687,130,92.5Z" transform="translate(-1.909 -42.692)"/>
    </g>
  </g>
</svg>
